<mxfile host="app.diagrams.net" modified="2024-02-26T08:17:14.029Z" agent="Mozilla/5.0 (Windows NT 10.0; Win64; x64) AppleWebKit/537.36 (KHTML, like Gecko) Chrome/122.0.0.0 Safari/537.36" version="23.1.6" etag="SxGVZ35h4JMM9OUHWHuc" type="github">
  <diagram name="Page-1" id="E7OSh2Ry_DrBk7EExdPj">
    <mxGraphModel>
      <root>
        <mxCell id="0" />
        <mxCell id="1" parent="0" />
      </root>
    </mxGraphModel>
  </diagram>
</mxfile>
